<svg width="111" height="19" viewBox="0 0 111 19" fill="none" xmlns="http://www.w3.org/2000/svg">
<path d="M0 9.572L10.0261 0H18.8249V18.6531H0V9.572Z" fill="#2C72F6"/>
<path d="M20.9849 6.06226H27.0471L33.1094 10.9856V18.6531H27.8049V14.2947H26.2893V18.6531H20.9849V6.06226Z" fill="#2C72F6"/>
<path d="M45.1367 2.80543H47.9571V9.11765H55.3661V2.80543H58.1864V18.6531H55.3661V11.6694H47.9571V18.6531H45.1367V2.80543Z" fill="#222222"/>
<path d="M60.9444 13.281C60.9444 12.4304 61.0936 11.6619 61.392 10.9755C61.7054 10.2741 62.1232 9.67724 62.6455 9.1848C63.1678 8.69235 63.7871 8.31183 64.5034 8.04322C65.2197 7.77462 65.9807 7.64032 66.7865 7.64032C67.5923 7.64032 68.3534 7.77462 69.0697 8.04322C69.786 8.31183 70.4052 8.69235 70.9275 9.1848C71.4498 9.67724 71.8602 10.2741 72.1586 10.9755C72.472 11.6619 72.6287 12.4304 72.6287 13.281C72.6287 14.1316 72.472 14.9076 72.1586 15.6089C71.8602 16.2954 71.4498 16.8848 70.9275 17.3773C70.4052 17.8697 69.786 18.2502 69.0697 18.5188C68.3534 18.7874 67.5923 18.9217 66.7865 18.9217C65.9807 18.9217 65.2197 18.7874 64.5034 18.5188C63.7871 18.2502 63.1678 17.8697 62.6455 17.3773C62.1232 16.8848 61.7054 16.2954 61.392 15.6089C61.0936 14.9076 60.9444 14.1316 60.9444 13.281ZM63.6304 13.281C63.6304 13.6989 63.6976 14.1018 63.8319 14.4897C63.9811 14.8777 64.19 15.2209 64.4586 15.5194C64.7421 15.8178 65.0779 16.0566 65.4659 16.2357C65.8539 16.4147 66.2941 16.5043 66.7865 16.5043C67.279 16.5043 67.7192 16.4147 68.1072 16.2357C68.4952 16.0566 68.8235 15.8178 69.0921 15.5194C69.3756 15.2209 69.5845 14.8777 69.7188 14.4897C69.868 14.1018 69.9426 13.6989 69.9426 13.281C69.9426 12.8632 69.868 12.4603 69.7188 12.0723C69.5845 11.6843 69.3756 11.3411 69.0921 11.0426C68.8235 10.7442 68.4952 10.5054 68.1072 10.3264C67.7192 10.1473 67.279 10.0578 66.7865 10.0578C66.2941 10.0578 65.8539 10.1473 65.4659 10.3264C65.0779 10.5054 64.7421 10.7442 64.4586 11.0426C64.19 11.3411 63.9811 11.6843 63.8319 12.0723C63.6976 12.4603 63.6304 12.8632 63.6304 13.281Z" fill="#222222"/>
<path d="M75.0316 7.90892H77.5834V9.5877H77.6281C77.8669 9.08034 78.2474 8.63266 78.7697 8.24468C79.3069 7.84177 80.0232 7.64032 80.9185 7.64032C82.6048 7.64032 83.724 8.30437 84.2761 9.63247C84.6641 8.94604 85.1491 8.44613 85.7311 8.13276C86.313 7.80447 87.0069 7.64032 87.8127 7.64032C88.529 7.64032 89.1334 7.7597 89.6258 7.99846C90.1183 8.23722 90.5137 8.56551 90.8122 8.98334C91.1255 9.40117 91.3494 9.89362 91.4837 10.4607C91.618 11.0128 91.6851 11.6097 91.6851 12.2514V18.6531H88.9991V12.5647C88.9991 12.2364 88.9692 11.9231 88.9095 11.6246C88.8499 11.3113 88.7454 11.0426 88.5962 10.8188C88.4469 10.5801 88.2455 10.3935 87.9918 10.2592C87.7381 10.1249 87.4098 10.0578 87.0069 10.0578C86.5891 10.0578 86.231 10.1398 85.9325 10.304C85.649 10.4532 85.4102 10.6621 85.2162 10.9307C85.0372 11.1844 84.9029 11.4829 84.8133 11.8261C84.7387 12.1544 84.7014 12.4901 84.7014 12.8333V18.6531H82.0154V12.2514C82.0154 11.5799 81.8736 11.0501 81.5901 10.6621C81.3065 10.2592 80.8365 10.0578 80.1799 10.0578C79.7322 10.0578 79.3517 10.1324 79.0383 10.2816C78.7399 10.4308 78.4862 10.6323 78.2773 10.886C78.0833 11.1396 77.9415 11.4306 77.852 11.7589C77.7624 12.0872 77.7177 12.4304 77.7177 12.7886V18.6531H75.0316V7.90892Z" fill="#222222"/>
<path d="M95.5825 10.1921H93.3665V7.90892H95.5825V6.38683C95.5825 5.6407 95.6348 4.96919 95.7392 4.37229C95.8437 3.76047 96.0377 3.23818 96.3212 2.80543C96.6196 2.37267 97.03 2.04438 97.5523 1.82054C98.0746 1.58178 98.7536 1.4624 99.5892 1.4624C100.201 1.4624 100.768 1.51463 101.29 1.61909L101.111 3.90223C100.917 3.85746 100.731 3.82016 100.552 3.79031C100.373 3.76047 100.186 3.74555 99.9921 3.74555C99.6191 3.74555 99.3206 3.80523 99.0968 3.92461C98.8729 4.04399 98.6939 4.20814 98.5596 4.41706C98.4402 4.61105 98.3581 4.84235 98.3133 5.11095C98.2835 5.37956 98.2686 5.66309 98.2686 5.96154V7.90892H100.753V10.1921H98.2686V18.6531H95.5825V10.1921ZM102.499 1.73101H105.185V18.6531H102.499V1.73101Z" fill="#222222"/>
<path d="M107.933 7.90892H110.619V18.6531H107.933V7.90892ZM107.553 4.26037C107.553 3.82762 107.709 3.45456 108.023 3.14118C108.351 2.81289 108.761 2.64874 109.254 2.64874C109.746 2.64874 110.157 2.80543 110.485 3.1188C110.828 3.41725 111 3.79777 111 4.26037C111 4.72297 110.828 5.11095 110.485 5.42433C110.157 5.72278 109.746 5.872 109.254 5.872C108.761 5.872 108.351 5.71531 108.023 5.40194C107.709 5.07365 107.553 4.69312 107.553 4.26037Z" fill="#222222"/>
</svg>
